<?xml version="1.0" standalone="no"?>
<!DOCTYPE svg PUBLIC "-//W3C//DTD SVG 20010904//EN"
 "http://www.w3.org/TR/2001/REC-SVG-20010904/DTD/svg10.dtd">
<svg version="1.0" xmlns="http://www.w3.org/2000/svg"
 width="700.000000pt" height="700.000000pt" viewBox="0 0 700.000000 700.000000"
 preserveAspectRatio="xMidYMid meet">
<metadata>
Created by potrace 1.11, written by Peter Selinger 2001-2013
</metadata>
<g transform="translate(0.000000,700.000000) scale(0.100000,-0.100000)"
fill="#000000" stroke="none">
<path d="M384 6440 l-380 -5 223 -380 c123 -209 226 -386 229 -393 4 -8 72
-125 152 -260 79 -136 153 -261 163 -279 30 -54 671 -1150 737 -1263 12 -19
34 -57 50 -85 16 -27 77 -133 137 -235 59 -102 115 -197 124 -212 9 -15 129
-220 266 -454 138 -235 262 -448 276 -473 15 -25 127 -217 249 -426 123 -209
233 -398 245 -420 12 -22 73 -125 135 -230 61 -104 122 -208 135 -230 80 -144
163 -275 197 -311 119 -129 313 -179 478 -124 138 45 228 136 335 335 6 11 65
110 130 220 66 110 126 213 135 228 8 16 101 172 205 349 105 176 199 337 211
357 12 20 57 97 101 171 44 74 90 151 101 170 11 19 64 109 117 200 54 91 112
190 130 220 17 30 43 73 57 95 13 22 27 45 29 50 3 9 35 62 90 153 19 32 422
713 459 777 64 109 143 243 330 560 117 198 221 374 230 390 10 17 120 203
245 415 126 212 239 409 251 437 94 211 16 459 -180 577 -120 72 -63 69 -1126
71 -525 0 -961 -1 -967 -3 -7 -2 -13 -8 -13 -13 0 -4 -40 -75 -88 -156 -49
-82 -91 -156 -95 -163 -4 -8 -18 -33 -32 -55 -14 -22 -43 -71 -65 -110 -22
-38 -87 -149 -143 -245 l-103 -175 792 -3 793 -2 -46 -78 c-111 -186 -207
-349 -224 -378 -9 -18 -40 -69 -68 -114 -28 -45 -51 -83 -51 -85 0 -1 -43 -73
-95 -160 -52 -87 -95 -159 -95 -160 0 -2 -55 -94 -121 -206 -67 -112 -130
-217 -139 -234 -10 -16 -81 -138 -160 -270 -79 -132 -201 -339 -273 -460 -71
-121 -156 -263 -187 -315 -93 -155 -353 -593 -364 -615 -6 -11 -54 -91 -106
-178 -108 -180 -111 -184 -128 -215 -13 -22 -18 -16 -104 130 -49 84 -100 171
-112 193 -23 40 -295 503 -355 603 -17 29 -31 57 -31 62 0 6 -4 10 -10 10 -5
0 -10 4 -10 10 0 5 -26 53 -59 107 -32 54 -145 247 -251 428 -210 359 -323
553 -437 743 -40 68 -73 125 -73 127 0 1 -18 33 -41 70 -22 37 -49 82 -59 99
-9 17 -69 119 -132 226 -63 107 -186 317 -273 465 -87 149 -248 423 -358 610
-199 337 -215 365 -271 463 l-29 51 -151 3 c-83 2 -322 1 -532 -2z"/>
</g>
</svg>
