<svg xmlns="http://www.w3.org/2000/svg" width="783" height="165" viewBox="0 0 783 165"><path d="M541.259 1l-34.271 87.052L474.351 2h-41.696l-27.394 162h41.938l13.817-93.199 26.47 67.49L497.507 165h16.722l39.029-94.162L565.134 165h41.935L582.83 1zM365.5 1.53c-13.717 0-25.5 10.573-25.5 23.607v114.552c0 13.042 11.783 23.606 25.5 23.606 13.715 0 25.5-10.564 25.5-23.606V25.138c0-13.035-11.785-23.608-25.5-23.608zm357.33.626l.022-.624L677.018 1h-.014l-62.053 163h44.361l11.045-29h58.04l10.427 29h44.843zm-614.347.145l-45.846.525L1 165h44v-.985l-.032-.448L55.99 135h58.037l10.423 30h44.844L108.459 2.851zM300.393 74H247v29h31.932c-1.15 9-3.685 14.016-7.607 17.938-5.996 5.775-14.083 9.098-24.223 9.098-11.531 0-20.524-3.538-27.429-10.681-9.232-9.678-13.842-21.829-13.842-36.353 0-6.922 1.385-13.787 3.924-20.264 6.68-17.744 18.896-26.718 36.198-26.718 8.529 0 15.691 2.543 21.912 7.393 4.384 3.681 8.067 8.996 11.304 15.918l37.812-15.467c-6.445-12.898-14.063-22.577-23.06-29.276C281.243 5.374 266.016.748 247.804.748c-27.221 0-48.205 8.771-63.435 26.059-13.365 15.226-20.043 33.902-20.043 56.276 0 20.3 5.754 37.584 17.061 52.128 15.214 19.136 36.661 28.829 65.032 28.829 7.109 0 13.837-.7 20.187-2.12l.007-.016c9.055-2.01 17.312-5.451 24.773-10.332 13.138-8.548 22.596-20.984 28.371-36.9 3.697-10.623 5.533-24.141 5.533-40.756L300.477 74h-.084z" fill-rule="evenodd" clip-rule="evenodd" fill="#FFF"/></svg>