<svg xmlns="http://www.w3.org/2000/svg" preserveAspectRatio="xMidYMid" viewBox="0 0 66 34"><path d="M65.782 25.811c-.237.151-.527.181-.804.181h-.03l-.024.003-.015-.003c-1.055-.028-1.643-.268-2.47-.855-1.101-.775-1.769-2.082-1.769-3.531v-9.491c-.007-.457-.219-1.158-.571-1.467a2.094 2.094 0 0 0-1.346-.518h-4.301l.179.419c.193.461.276.956.276 1.454v13.362c0 .337-.294.586-.63.586h-.021c-1.419-.086-2.235-.133-3.113-.918-.44-.388-.711-.96-.711-1.809V10.523a1.832 1.832 0 0 0-.295-.99c-.139-.227-.403-.508-.328-.793a.452.452 0 0 1 .207-.276c.238-.153.527-.184.809-.184h.023l.018-.003h.013c.008 0 .013.003.018.003.034 0 .07 0 .104.002h7.258l.838.055h.008c1.53.178 2.989.796 4.139 1.816 1.308 1.161 2.109 2.753 2.122 4.503l.002 9.076c0 .372.101.691.295 1.005.055.092.13.192.196.296.099.158.176.33.133.5a.462.462 0 0 1-.21.278zm-20.523.181h-.031l-.023.003-.016-.003c-1.054-.028-1.642-.268-2.469-.855-1.101-.775-1.769-2.082-1.769-3.531v-9.491c-.008-.457-.219-1.158-.571-1.467a2.094 2.094 0 0 0-1.346-.518h-4.301l.178.419c.194.461.277.956.277 1.454v13.362c0 .337-.295.586-.63.586h-.021c-1.419-.086-2.235-.133-3.114-.918-.439-.388-.71-.96-.71-1.809V10.523a1.84 1.84 0 0 0-.295-.99c-.139-.227-.403-.508-.327-.793a.447.447 0 0 1 .206-.276c.238-.153.527-.184.809-.184h.023l.018-.003h.013c.007 0 .013.003.018.003.034 0 .07 0 .104.002h7.258l.837.055h.009c1.529.178 2.989.796 4.139 1.816 1.308 1.161 2.109 2.753 2.122 4.503l.002 9.076c0 .372.101.691.295 1.005.054.092.129.192.196.296.099.158.176.33.132.5a.454.454 0 0 1-.21.278c-.237.151-.526.181-.803.181zm-23.921-4.81L21.316 9.94c0-1.683-.911-1.75-.578-2.249.78-1.172 5.288.38 5.288 3.748v11.994c0 1.713.721 1.508.561 2.125-.253.974-5.249.642-5.249-4.376zM23.02 4.65c-1.301 0-2.355-1.041-2.355-2.326 0-1.284 1.054-2.325 2.355-2.325s2.355 1.041 2.355 2.325c0 1.285-1.054 2.326-2.355 2.326zm-6.542 21.342h-2.561l-3.848.003-2.228-.003c-.455 0-.904-.038-1.349-.112-1.38-.232-2.682-.824-3.731-1.758a6.45 6.45 0 0 1-1.212-1.431 5.838 5.838 0 0 1-.91-3.123V2.496c0-.375-.101-.689-.297-1.007C.205 1.264-.059.981.014.695A.488.488 0 0 1 .223.417C.458.266.75.235 1.027.235h.033l.024-.002.015.002c.15.006.3.016.45.034 2.273.255 3.564 1.967 3.564 4.353v3.699h4.79c1.861 0 3.693.641 5.084 1.873 1.304 1.158 2.103 2.755 2.121 4.5v10.709a.575.575 0 0 1-.261.477.666.666 0 0 1-.369.112zm-3.613-2.263a3.144 3.144 0 0 1-.339-1.454V12.153c-.007-.454-.267-1.155-.699-1.467-.476-.344-1.101-.518-1.74-.518H5.113v11.977c0 .459.266 1.168.701 1.484.476.342 1.105.518 1.74.518h5.53l-.219-.418z" fill="#fff"/></svg>