<svg xmlns="http://www.w3.org/2000/svg" viewBox="10 1.908 111 26"><path d="M23.638 9.401a6.736 6.736 0 0 0-2.332-1.696c-.919-.411-1.966-.616-3.138-.616-1.16 0-2.201.205-3.128.616a6.687 6.687 0 0 0-2.343 1.696 7.51 7.51 0 0 0-1.463 2.535c-.338.967-.508 2.016-.508 3.148 0 1.101.17 2.132.508 3.086a7.36 7.36 0 0 0 1.464 2.491 6.67 6.67 0 0 0 2.342 1.663c.927.402 1.968.605 3.128.605 1.172 0 2.219-.203 3.138-.605a6.735 6.735 0 0 0 2.332-1.663A7.34 7.34 0 0 0 25.1 18.17a9.161 9.161 0 0 0 .508-3.086c0-1.132-.169-2.181-.508-3.148a7.551 7.551 0 0 0-1.462-2.535zm-1.58 7.537a4.999 4.999 0 0 1-.711 1.623 3.67 3.67 0 0 1-1.272 1.157c-.523.29-1.159.436-1.908.436-.75 0-1.387-.146-1.908-.436a3.655 3.655 0 0 1-1.273-1.157 4.985 4.985 0 0 1-.71-1.623 7.72 7.72 0 0 1-.224-1.854c0-.664.075-1.309.224-1.93a5.075 5.075 0 0 1 .71-1.665c.326-.487.75-.876 1.273-1.166.521-.29 1.158-.433 1.908-.433s1.386.144 1.908.433c.523.29.946.679 1.272 1.166.325.489.562 1.043.711 1.665.147.621.222 1.266.222 1.93 0 .636-.074 1.255-.222 1.854zm18.083-9.487h-4.156l-5.916 6.276V7.451H26.74v15.14h3.329v-4.878l1.91-1.929 4.557 6.807h4.176l-6.487-9.16zm12.671 0H40.409v2.799h4.538v12.341h3.329V10.25h4.536zm3.505 0l-5.727 15.14h3.35l1.188-3.373h5.661l1.146 3.373h3.455l-5.659-15.14h-3.414zm-.319 9.287l1.972-5.556h.042l1.908 5.556h-3.922zm13.679-.658h7.336v-2.588h-7.336V10.25h7.993V7.451H66.348v15.14h11.493v-2.802h-8.164zm21.199-6.764a5.877 5.877 0 0 0-2.184-1.397 7.774 7.774 0 0 0-2.724-.468h-6.532v15.141h6.532c1.157 0 2.164-.195 3.02-.584s1.569-.923 2.144-1.602c.571-.678.999-1.483 1.279-2.418.285-.933.425-1.95.425-3.052 0-1.259-.172-2.354-.518-3.286-.347-.934-.827-1.712-1.442-2.334zm-1.687 8.058c-.212.58-.494 1.049-.848 1.409a3.098 3.098 0 0 1-1.209.775 4.34 4.34 0 0 1-1.398.23h-2.971v-9.54h2.377c.82 0 1.508.118 2.067.35a3.246 3.246 0 0 1 1.345 1.005c.341.438.585.965.731 1.58a8.79 8.79 0 0 1 .225 2.067c.001.838-.105 1.544-.319 2.124zm8.286-1.294h7.339v-2.588h-7.339V10.25h7.996V7.451H94.147v15.14h11.494v-2.802h-8.166zm22.451 5.735a6.652 6.652 0 0 1-.168-.964 15.325 15.325 0 0 1-.075-.995 55.505 55.505 0 0 0-.042-.848 9.479 9.479 0 0 0-.158-1.146 3.84 3.84 0 0 0-.372-1.051 2.863 2.863 0 0 0-.657-.827 2.543 2.543 0 0 0-1.019-.518v-.044c.849-.339 1.462-.833 1.835-1.484.375-.651.562-1.422.562-2.312 0-.579-.104-1.119-.307-1.622a3.849 3.849 0 0 0-.891-1.324 4.196 4.196 0 0 0-1.4-.901c-.544-.219-1.155-.329-1.833-.329h-8.164v15.14h3.327v-5.918h3.333c.832 0 1.433.187 1.802.553.367.368.606.948.721 1.736.083.609.146 1.246.191 1.911.041.663.152 1.235.339 1.717h3.326a2.298 2.298 0 0 1-.35-.774zm-3.996-8.026c-.382.341-.952.511-1.716.511h-3.65v-4.263h3.65c.764 0 1.334.167 1.716.499.384.332.572.865.572 1.601 0 .764-.189 1.315-.572 1.652zM58.007 4.18l1.123 1.124h1.828l-2.951-2.953-2.954 2.953h1.831z" fill="#F6F6F6"/></svg>