<svg version="1.1" id="Слой_1" xmlns="http://www.w3.org/2000/svg" xmlns:xlink="http://www.w3.org/1999/xlink" x="0px"
     y="0px"
     viewBox="0 0 97 80" style="enable-background:new 0 0 97 80;" xml:space="preserve" fill="#C1AD78">
<rect x="0" y="12.4" class="st0" width="22.7" height="6.7"/>
  <rect x="0" class="st0" width="22.7" height="6.7"/>
  <path class="st0" d="M40.7,24.7H0v6.7h39.2c4.3,0,14.3,0.1,18,6.1v-3.7C55.4,27.8,50,24.7,40.7,24.7z"/>
  <path class="st0" d="M40.8,37H0v6.7h39.2c9.5,0,15.5,0.4,18,1.7v-3C55.3,37.8,47.3,37,40.8,37z"/>
  <path class="st0" d="M40.7,68.5H0v-6.7h39.2c4.3,0,14.3-0.1,18-6.1v3.7C55.4,65.3,50,68.5,40.7,68.5z"/>
  <path class="st0" d="M40.8,56.1H0v-6.7h39.2c9.5,0,15.5-0.4,18-1.7v3C55.3,55.3,47.3,56.1,40.8,56.1z"/>
  <path class="st0" d="M67.1,80H97v-4.1H68c-2.6,0-8.7-0.1-10.9-3.6v2.3C58.1,78.1,61.4,80,67.1,80z"/>
  <path class="st0" d="M67,72.5H97v-4.1H68c-5.8,0-9.4-0.2-10.9-1v1.8C58.2,72,63.1,72.5,67,72.5z"/>
</svg>
