<svg width="100" height="80" viewBox="0 0 100 80" fill="none" xmlns="http://www.w3.org/2000/svg">
<path d="M9.87 17.21V36.6C9.87 37.0667 9.75333 37.72 9.52 38.56C9.33333 39.4 8.86667 40.1467 8.12 40.8C8.86667 41.4533 9.33333 42.2233 9.52 43.11C9.75333 43.95 9.87 44.58 9.87 45V65.16H13.72V68.17H8.19C7.81667 68.17 7.44333 68.0067 7.07 67.68C6.74333 67.4 6.58 66.8633 6.58 66.07V45.77C6.58 44.93 6.37 44.1367 5.95 43.39C5.57667 42.6433 4.97 42.2233 4.13 42.13V39.33C4.59667 39.33 4.99333 39.19 5.32 38.91C5.64667 38.63 5.90333 38.3033 6.09 37.93C6.27667 37.5567 6.39333 37.1833 6.44 36.81C6.53333 36.39 6.58 36.0633 6.58 35.83V16.3C6.58 15.3667 6.79 14.7833 7.21 14.55C7.63 14.3167 7.95667 14.2 8.19 14.2H13.72V17.21H9.87Z" fill="#121212"/>
<path d="M84.64 17.21V14.2H90.17C90.3567 14.2 90.66 14.3167 91.08 14.55C91.5467 14.7833 91.78 15.3667 91.78 16.3V35.83C91.78 36.0633 91.8033 36.39 91.85 36.81C91.9433 37.1833 92.0833 37.5567 92.27 37.93C92.4567 38.3033 92.69 38.63 92.97 38.91C93.2967 39.19 93.7167 39.33 94.23 39.33V42.13C93.3433 42.2233 92.7133 42.6433 92.34 43.39C91.9667 44.1367 91.78 44.93 91.78 45.77V66.07C91.78 66.8633 91.5933 67.4 91.22 67.68C90.8933 68.0067 90.5433 68.17 90.17 68.17H84.64V65.16H88.49V45C88.49 44.58 88.5833 43.95 88.77 43.11C89.0033 42.2233 89.4933 41.4533 90.24 40.8C89.4933 40.1467 89.0033 39.4 88.77 38.56C88.5833 37.72 88.49 37.0667 88.49 36.6V17.21H84.64Z" fill="#121212"/>
<rect x="21" y="1" width="58" height="78" rx="9" stroke="#C1AD78" stroke-width="2"/>
<rect x="30" y="10" width="40" height="10" fill="#242424"/>
<rect x="35" y="14" width="25" height="2" fill="#C1AD78"/>
<rect x="30" y="25" width="40" height="10" fill="#242424"/>
<rect x="35" y="29" width="18" height="2" fill="#C1AD78"/>
<rect x="30" y="40" width="40" height="10" fill="#242424"/>
<rect x="35" y="44" width="22" height="2" fill="#C1AD78"/>
<rect x="30" y="60" width="40" height="10" rx="5" fill="#C1AD78"/>
<rect x="35" y="64" width="30" height="2" fill="white"/>
</svg>
