<?xml version="1.0" encoding="utf-8"?>
<!-- Generator: Adobe Illustrator 23.0.1, SVG Export Plug-In . SVG Version: 6.00 Build 0)  -->
<svg version="1.1" id="Layer_1" xmlns="http://www.w3.org/2000/svg" xmlns:xlink="http://www.w3.org/1999/xlink" x="0px" y="0px"
	 viewBox="0 0 632.9 100" style="enable-background:new 0 0 632.9 100;" xml:space="preserve">
<g id="Layer_1_1_">
</g>
<g id="Layer_2">
	<polygon points="227.7,16.1 227.7,0.4 153.2,0.4 144.1,16.1 	"/>
	<path d="M113.3,69.6v21.1c0,4.3,3.5,7.9,7.9,7.9h69.6l-9-15.7H129V43L113.3,69.6z"/>
	<path d="M306.9,63.8c3.7-1.9,7.7-4.7,11-8.9c7-9,7-18.8,6.7-22.6c-0.6-6.5-2.9-12.6-6.6-17.6c-9.5-12.9-24.5-14.2-29-14.3h-61.3
		c-4.3,0-7.9,3.5-7.9,7.9v82.6c0,2.1,0.8,4.1,2.3,5.6s3.5,2.3,5.5,2.3l0,0c5.2,0,18,0,30.8,0c7,0,14,0,19.8,0l-9-15.7
		c-3.5,0-7.2,0-10.9,0c-8.4,0-16.7,0-23,0V16.3h53.3c1.8,0,11.1,0.6,16.5,7.9c2.5,3.4,3.3,7.2,3.6,9.6c0.1,1.5,0.2,6.9-3.5,11.7
		c-4,5.1-11.2,6.4-11.2,6.4c-2.6,0.4-4.8,2-5.9,4.3s-1.1,5.1,0.2,7.3l20.7,36.8h17.5L306.9,63.8z"/>
	<path d="M491.7,6.9H476c0,30.4,0,60.7,0,91.1c0,0.3,0.2,0.6,0.5,0.6s0.5-0.1,0.7-0.3c4.8-8.3,9.7-16.7,14.5-25V6.9z"/>
	<g>
		<path d="M418.3,100.1L418.3,100.1L313.8,100V84.3l104.3,0.1c0.7-0.1,6.1-0.6,9.5-4.1c1.1-1.2,3.7-4.4,3.7-9c0-4.6-2.6-7.7-3.7-8.9
			c-3.4-3.6-9.4-3.8-9.4-3.8h-35.7c-1.3,0-12.8-0.2-20.9-8.8c-7-7.4-7.8-16.3-7.8-19.8s0.8-12.6,8.2-20.1c7.6-7.7,16.8-8.6,20.5-8.6
			h151.6L525.3,17H382.6c-1.3,0-5.7,0.3-9.3,3.9c-3.4,3.5-3.7,7.9-3.7,9.1c0,1.6,0.3,5.6,3.4,8.9c3.5,3.7,9.4,3.9,9.5,3.9l0,0h35.7
			c1.2,0,12.7,0.2,20.8,8.6c2.4,2.5,8,9.5,8,19.7c0,10.4-5.7,17.5-8.1,20c-7.9,8.2-19.1,8.8-20.3,8.9
			C418.5,100.1,418.4,100.1,418.3,100.1z"/>
	</g>
	<polygon points="169.7,58.6 160.7,42.9 129,42.9 120.2,58.5 119.6,58.6 	"/>
	<path d="M117.9,4c-1.4-2.4-4-3.9-6.8-3.9H79.6l-9.2,15.7h27L62.2,75.1L18.1,0H0l55.4,94.7c1.4,2.4,4,3.9,6.8,3.9l0,0
		c2.8,0,5.4-1.5,6.8-3.9l48.9-82.8C119.3,9.4,119.3,6.4,117.9,4z"/>
	<path d="M515,94.6c1.4,2.4,4,3.9,6.8,3.9h31.5l9.2-15.7h-27l35.2-59.3l44.1,75.1h18.1L577.5,3.9c-1.4-2.4-4-3.9-6.8-3.9l0,0
		c-2.8,0-5.4,1.5-6.8,3.9L515,86.7C513.6,89.1,513.6,92.1,515,94.6z"/>
</g>
</svg>
