<svg xmlns="http://www.w3.org/2000/svg" viewBox="0 0 1682.02 1401.65"><defs><style>.cls-1{fill:#2d2929;fill-rule:evenodd;}</style></defs><title>telegram</title><g id="Слой_2" data-name="Слой 2"><g id="svg5607"><path class="cls-1" d="M1662.59,13.33a56.11,56.11,0,0,0-55.85-9.82C1312.88,112.28,407.91,451.83,38,588.7a57.63,57.63,0,0,0,3.58,109.54c165.88,49.62,383.63,118.65,383.63,118.65S527,1124.2,580,1280.49c6.66,19.62,22,35,42.26,40.36a60,60,0,0,0,56.84-14.5l217-204.85s250.34,183.54,392.32,284.67a83.34,83.34,0,0,0,77.58,10.16,81.31,81.31,0,0,0,50.74-58.87c60.91-286.21,208.64-1010.66,264.07-1271A54.7,54.7,0,0,0,1662.59,13.33Zm-288.18,263.3C1115.25,510.35,660.62,920.4,660.62,920.4l-26.14,245.78L516.82,778.07h0S1050,437.53,1350.38,245.72a19.92,19.92,0,0,1,26.35,4.48A19.47,19.47,0,0,1,1374.41,276.63Z"/></g></g></svg>