<svg xmlns="http://www.w3.org/2000/svg"><symbol id="icon_arrow" viewBox="0 0 23 12"><path d="M22.53 6.53a.75.75 0 0 0 0-1.06L17.757.697a.75.75 0 0 0-1.06 1.06L20.939 6l-4.242 4.243a.75.75 0 0 0 1.06 1.06L22.53 6.53zM0 6.75h22v-1.5H0v1.5z"/></symbol><symbol id="icon_logo" viewBox="0 0 632.9 100"><g id="Layer_2"><path d="M227.7 16.1V.4h-74.5l-9.1 15.7zM113.3 69.6v21.1c0 4.3 3.5 7.9 7.9 7.9h69.6l-9-15.7H129V43l-15.7 26.6z"/><path d="M306.9 63.8c3.7-1.9 7.7-4.7 11-8.9 7-9 7-18.8 6.7-22.6-.6-6.5-2.9-12.6-6.6-17.6C308.5 1.8 293.5.5 289 .4h-61.3c-4.3 0-7.9 3.5-7.9 7.9v82.6c0 2.1.8 4.1 2.3 5.6s3.5 2.3 5.5 2.3h50.6l-9-15.7h-33.9V16.3h53.3c1.8 0 11.1.6 16.5 7.9 2.5 3.4 3.3 7.2 3.6 9.6.1 1.5.2 6.9-3.5 11.7-4 5.1-11.2 6.4-11.2 6.4-2.6.4-4.8 2-5.9 4.3s-1.1 5.1.2 7.3l20.7 36.8h17.5l-19.6-36.5zM491.7 6.9H476V98c0 .3.2.6.5.6s.5-.1.7-.3c4.8-8.3 9.7-16.7 14.5-25V6.9z"/><path d="M418.3 100.1l-104.5-.1V84.3l104.3.1c.7-.1 6.1-.6 9.5-4.1 1.1-1.2 3.7-4.4 3.7-9s-2.6-7.7-3.7-8.9c-3.4-3.6-9.4-3.8-9.4-3.8h-35.7c-1.3 0-12.8-.2-20.9-8.8-7-7.4-7.8-16.3-7.8-19.8s.8-12.6 8.2-20.1c7.6-7.7 16.8-8.6 20.5-8.6h151.6L525.3 17H382.6c-1.3 0-5.7.3-9.3 3.9-3.4 3.5-3.7 7.9-3.7 9.1 0 1.6.3 5.6 3.4 8.9 3.5 3.7 9.4 3.9 9.5 3.9h35.7c1.2 0 12.7.2 20.8 8.6 2.4 2.5 8 9.5 8 19.7 0 10.4-5.7 17.5-8.1 20-7.9 8.2-19.1 8.8-20.3 8.9-.1.1-.2.1-.3.1zM169.7 58.6l-9-15.7H129l-8.8 15.6-.6.1zM117.9 4c-1.4-2.4-4-3.9-6.8-3.9H79.6l-9.2 15.7h27L62.2 75.1 18.1 0H0l55.4 94.7c1.4 2.4 4 3.9 6.8 3.9s5.4-1.5 6.8-3.9l48.9-82.8c1.4-2.5 1.4-5.5 0-7.9zM515 94.6c1.4 2.4 4 3.9 6.8 3.9h31.5l9.2-15.7h-27l35.2-59.3 44.1 75.1h18.1L577.5 3.9c-1.4-2.4-4-3.9-6.8-3.9s-5.4 1.5-6.8 3.9L515 86.7c-1.4 2.4-1.4 5.4 0 7.9z"/></g></symbol><symbol id="icon_refresh" viewBox="0 0 612.035 612.035"><path d="M323.128 56.236l5.646-9.57 40.17-40.169C271.247-13.921 165.482 13.786 89.65 89.646-16.421 195.717-28.355 360.261 53.875 479.49L10.98 522.386l137.7 19.667-19.667-137.7-34.968 34.967c-60.978-96.724-49.322-226.078 34.94-310.34 53.244-53.243 124.486-77.501 194.143-72.744zm258.264 13.743l-137.7-19.667 19.668 137.7 38.25-38.25c78.726 98.31 72.521 242.186-18.583 333.317-61.116 61.117-145.989 84.039-224.882 68.739l-45.65 45.649c105.654 33.799 226.05 8.791 309.895-75.054 112.858-112.858 119.146-291.979 18.805-412.209l40.197-40.225z"/></symbol><symbol id="icon_star" viewBox="0 0 39 37"><path fill-rule="evenodd" d="M19.5 2.501l5.603 10.056 11.395 2.166-7.933 8.382 1.44 11.394L19.5 29.623 8.995 34.499l1.439-11.394-7.932-8.382 11.395-2.166L19.5 2.501"/></symbol></svg>