<?xml version="1.0" encoding="utf-8"?>
<!-- Generator: Adobe Illustrator 16.0.0, SVG Export Plug-In . SVG Version: 6.00 Build 0)  -->
<!DOCTYPE svg PUBLIC "-//W3C//DTD SVG 1.1//EN" "http://www.w3.org/Graphics/SVG/1.1/DTD/svg11.dtd">
<svg version="1.1" id="Layer_1" xmlns="http://www.w3.org/2000/svg" xmlns:xlink="http://www.w3.org/1999/xlink" x="0px" y="0px"
	 width="783px" height="165px" viewBox="0 0 783 165" enable-background="new 0 0 783 165" xml:space="preserve">
<g>
	<polygon fill-rule="evenodd" clip-rule="evenodd" fill="#FFFFFF" points="541.259,1 506.988,88.052 474.351,2 432.655,2 
		405.261,164 447.199,164 461.016,70.801 487.486,138.291 497.507,165 514.229,165 553.258,70.838 565.134,165 607.069,165 
		582.83,1 	"/>
	<path fill-rule="evenodd" clip-rule="evenodd" fill="#FFFFFF" d="M365.5,1.53c-13.717,0-25.5,10.573-25.5,23.607v55.737v0.878
		v57.937c0,13.042,11.783,23.606,25.5,23.606c13.715,0,25.5-10.564,25.5-23.606V81.753v-0.878V25.138
		C391,12.103,379.215,1.53,365.5,1.53z"/>
	<polygon fill-rule="evenodd" clip-rule="evenodd" fill="#FFFFFF" points="722.83,2.156 722.852,1.532 677.018,1 677.01,1 
		677.004,1 614.951,164 659.312,164 670.357,135 728.397,135 738.824,164 783.667,164 	"/>
	<polygon fill-rule="evenodd" clip-rule="evenodd" fill="#FFFFFF" points="108.483,2.301 62.637,2.826 1,165 1.42,165 1.42,165 
		45,165 45,164.015 44.968,163.567 55.99,135 114.027,135 124.45,165 169.294,165 108.459,2.851 	"/>
	<path fill-rule="evenodd" clip-rule="evenodd" fill="#FFFFFF" d="M300.393,74H247v29h31.932c-1.15,9-3.685,14.016-7.607,17.938
		c-5.996,5.775-14.083,9.098-24.223,9.098c-11.531,0-20.524-3.538-27.429-10.681c-9.232-9.678-13.842-21.829-13.842-36.353
		c0-6.922,1.385-13.787,3.924-20.264c6.68-17.744,18.896-26.718,36.198-26.718c8.529,0,15.691,2.543,21.912,7.393
		c4.384,3.681,8.067,8.996,11.304,15.918l37.812-15.467c-6.445-12.898-14.063-22.577-23.06-29.276
		c-12.678-9.214-27.905-13.84-46.117-13.84c-27.221,0-48.205,8.771-63.435,26.059c-13.365,15.226-20.043,33.902-20.043,56.276
		c0,20.3,5.754,37.584,17.061,52.128c15.214,19.136,36.661,28.829,65.032,28.829c7.109,0,13.837-0.7,20.187-2.12l0.007-0.016
		c9.055-2.01,17.312-5.451,24.773-10.332c13.138-8.548,22.596-20.984,28.371-36.9c3.697-10.623,5.533-24.141,5.533-40.756
		L300.477,74H300.393z"/>
</g>
</svg>
