<?xml version="1.0" encoding="utf-8"?>
<!-- Generator: Adobe Illustrator 23.0.1, SVG Export Plug-In . SVG Version: 6.00 Build 0)  -->
<svg version="1.1" id="Слой_1" xmlns="http://www.w3.org/2000/svg" xmlns:xlink="http://www.w3.org/1999/xlink" x="0px" y="0px"
	 viewBox="0 0 66 34" style="enable-background:new 0 0 66 34;" xml:space="preserve">
<style type="text/css">
	.st0{fill:#FFFFFF;}
</style>
<path class="st0" d="M65.8,25.8C65.5,26,65.3,26,65,26h0l0,0l0,0c-1.1,0-1.6-0.3-2.5-0.9c-1.1-0.8-1.8-2.1-1.8-3.5v-9.5
	c0-0.5-0.2-1.2-0.6-1.5c-0.4-0.3-0.9-0.5-1.3-0.5h-4.3l0.2,0.4c0.2,0.5,0.3,1,0.3,1.5v13.4c0,0.3-0.3,0.6-0.6,0.6h0
	c-1.4-0.1-2.2-0.1-3.1-0.9c-0.4-0.4-0.7-1-0.7-1.8V10.5c0-0.4-0.1-0.7-0.3-1C50,9.3,49.7,9,49.8,8.7c0-0.1,0.1-0.2,0.2-0.3
	c0.2-0.2,0.5-0.2,0.8-0.2h0l0,0h0c0,0,0,0,0,0c0,0,0.1,0,0.1,0h7.3l0.8,0.1h0c1.5,0.2,3,0.8,4.1,1.8c1.3,1.2,2.1,2.8,2.1,4.5l0,9.1
	c0,0.4,0.1,0.7,0.3,1c0.1,0.1,0.1,0.2,0.2,0.3c0.1,0.2,0.2,0.3,0.1,0.5C66,25.7,65.9,25.7,65.8,25.8z M45.3,26L45.3,26L45.3,26
	L45.3,26c-1.1,0-1.7-0.3-2.5-0.9c-1.1-0.8-1.8-2.1-1.8-3.5v-9.5c0-0.5-0.2-1.2-0.6-1.5c-0.4-0.3-0.9-0.5-1.3-0.5h-4.3l0.2,0.4
	c0.2,0.5,0.3,1,0.3,1.5v13.4c0,0.3-0.3,0.6-0.6,0.6h0c-1.4-0.1-2.2-0.1-3.1-0.9c-0.4-0.4-0.7-1-0.7-1.8V10.5c0-0.4-0.1-0.7-0.3-1
	C30.3,9.3,30,9,30.1,8.7c0-0.1,0.1-0.2,0.2-0.3c0.2-0.2,0.5-0.2,0.8-0.2h0l0,0h0c0,0,0,0,0,0c0,0,0.1,0,0.1,0h7.3l0.8,0.1h0
	c1.5,0.2,3,0.8,4.1,1.8c1.3,1.2,2.1,2.8,2.1,4.5l0,9.1c0,0.4,0.1,0.7,0.3,1c0.1,0.1,0.1,0.2,0.2,0.3c0.1,0.2,0.2,0.3,0.1,0.5
	c0,0.1-0.1,0.2-0.2,0.3C45.8,26,45.5,26,45.3,26z M21.3,21.2l0-11.2c0-1.7-0.9-1.8-0.6-2.2c0.8-1.2,5.3,0.4,5.3,3.7v12
	c0,1.7,0.7,1.5,0.6,2.1C26.3,26.5,21.3,26.2,21.3,21.2z M23,4.7c-1.3,0-2.4-1-2.4-2.3C20.7,1,21.7,0,23,0c1.3,0,2.4,1,2.4,2.3
	C25.4,3.6,24.3,4.7,23,4.7z M16.5,26h-2.6l-3.8,0l-2.2,0c-0.5,0-0.9,0-1.3-0.1c-1.4-0.2-2.7-0.8-3.7-1.8c-0.5-0.4-0.9-0.9-1.2-1.4
	c-0.6-0.9-0.9-2-0.9-3.1V2.5c0-0.4-0.1-0.7-0.3-1C0.2,1.3-0.1,1,0,0.7c0-0.1,0.1-0.2,0.2-0.3C0.5,0.3,0.8,0.2,1,0.2h0l0,0l0,0
	c0.1,0,0.3,0,0.5,0c2.3,0.3,3.6,2,3.6,4.4v3.7h4.8c1.9,0,3.7,0.6,5.1,1.9c1.3,1.2,2.1,2.8,2.1,4.5v10.7c0,0.2-0.1,0.4-0.3,0.5
	C16.7,26,16.6,26,16.5,26z M12.9,23.7c-0.2-0.5-0.3-1-0.3-1.5V12.2c0-0.5-0.3-1.2-0.7-1.5c-0.5-0.3-1.1-0.5-1.7-0.5h-5v12
	c0,0.5,0.3,1.2,0.7,1.5c0.5,0.3,1.1,0.5,1.7,0.5h5.5L12.9,23.7z"/>
</svg>
