<svg xmlns="http://www.w3.org/2000/svg" xmlns:xlink="http://www.w3.org/1999/xlink" preserveAspectRatio="xMidYMid" viewBox="0 0 66 34">
  <path d="M65.782,25.811 C65.545,25.962 65.255,25.992 64.978,25.992 L64.948,25.992 L64.924,25.995 L64.909,25.992 C63.854,25.964 63.266,25.724 62.439,25.137 C61.338,24.362 60.670,23.055 60.670,21.606 L60.670,12.115 C60.663,11.658 60.451,10.957 60.099,10.648 C59.730,10.319 59.244,10.140 58.753,10.130 L54.452,10.130 L54.631,10.549 C54.824,11.010 54.907,11.505 54.907,12.003 L54.907,25.365 C54.907,25.702 54.613,25.951 54.277,25.951 L54.256,25.951 C52.837,25.865 52.021,25.818 51.143,25.033 C50.703,24.645 50.432,24.073 50.432,23.224 L50.432,10.523 C50.429,10.156 50.331,9.847 50.137,9.533 C49.998,9.306 49.734,9.025 49.809,8.740 C49.838,8.620 49.915,8.528 50.016,8.464 C50.254,8.311 50.543,8.280 50.825,8.280 L50.848,8.280 L50.866,8.277 L50.879,8.277 C50.887,8.277 50.892,8.280 50.897,8.280 C50.931,8.280 50.967,8.280 51.001,8.282 L58.259,8.282 L59.097,8.337 L59.105,8.337 C60.635,8.515 62.094,9.133 63.244,10.153 C64.552,11.314 65.353,12.906 65.366,14.656 L65.368,23.732 C65.368,24.104 65.469,24.423 65.663,24.737 C65.718,24.829 65.793,24.929 65.859,25.033 C65.958,25.191 66.035,25.363 65.992,25.533 C65.963,25.653 65.885,25.744 65.782,25.811 ZM45.259,25.992 L45.228,25.992 L45.205,25.995 L45.189,25.992 C44.135,25.964 43.547,25.724 42.720,25.137 C41.619,24.362 40.951,23.055 40.951,21.606 L40.951,12.115 C40.943,11.658 40.732,10.957 40.380,10.648 C40.011,10.319 39.525,10.140 39.034,10.130 L34.733,10.130 L34.911,10.549 C35.105,11.010 35.188,11.505 35.188,12.003 L35.188,25.365 C35.188,25.702 34.893,25.951 34.558,25.951 L34.537,25.951 C33.118,25.865 32.302,25.818 31.423,25.033 C30.984,24.645 30.713,24.073 30.713,23.224 L30.713,10.523 C30.710,10.156 30.611,9.847 30.418,9.533 C30.279,9.306 30.015,9.025 30.091,8.740 C30.118,8.620 30.197,8.528 30.297,8.464 C30.535,8.311 30.824,8.280 31.106,8.280 L31.129,8.280 L31.147,8.277 L31.160,8.277 C31.167,8.277 31.173,8.280 31.178,8.280 C31.212,8.280 31.248,8.280 31.282,8.282 L38.540,8.282 L39.377,8.337 L39.386,8.337 C40.915,8.515 42.375,9.133 43.525,10.153 C44.833,11.314 45.634,12.906 45.647,14.656 L45.649,23.732 C45.649,24.104 45.750,24.423 45.944,24.737 C45.998,24.829 46.073,24.929 46.140,25.033 C46.239,25.191 46.316,25.363 46.272,25.533 C46.244,25.653 46.166,25.744 46.062,25.811 C45.825,25.962 45.536,25.992 45.259,25.992 ZM21.338,21.182 L21.316,9.940 C21.316,8.257 20.405,8.190 20.738,7.691 C21.518,6.519 26.026,8.071 26.026,11.439 L26.026,23.433 C26.026,25.146 26.747,24.941 26.587,25.558 C26.334,26.532 21.338,26.200 21.338,21.182 ZM23.020,4.650 C21.719,4.650 20.665,3.609 20.665,2.324 C20.665,1.040 21.719,-0.001 23.020,-0.001 C24.321,-0.001 25.375,1.040 25.375,2.324 C25.375,3.609 24.321,4.650 23.020,4.650 ZM16.478,25.992 L13.917,25.992 L10.069,25.995 L7.841,25.992 C7.386,25.992 6.937,25.954 6.492,25.880 C5.112,25.648 3.810,25.056 2.761,24.122 C2.283,23.699 1.874,23.216 1.549,22.691 C0.965,21.762 0.639,20.696 0.639,19.568 L0.639,2.496 C0.639,2.121 0.538,1.807 0.342,1.489 C0.205,1.264 -0.059,0.981 0.014,0.695 C0.045,0.577 0.122,0.486 0.223,0.417 C0.458,0.266 0.750,0.235 1.027,0.235 L1.060,0.235 L1.084,0.233 L1.099,0.235 C1.249,0.241 1.399,0.251 1.549,0.269 C3.822,0.524 5.113,2.236 5.113,4.622 L5.113,8.321 L9.903,8.321 C11.764,8.321 13.596,8.962 14.987,10.194 C16.291,11.352 17.090,12.949 17.108,14.694 L17.108,25.403 C17.108,25.604 17.002,25.775 16.847,25.880 C16.741,25.951 16.612,25.992 16.478,25.992 ZM12.865,23.729 C12.627,23.267 12.526,22.772 12.526,22.275 L12.526,12.153 C12.519,11.699 12.259,10.998 11.827,10.686 C11.351,10.342 10.726,10.168 10.087,10.168 L5.113,10.168 L5.113,22.145 C5.113,22.604 5.379,23.313 5.814,23.629 C6.290,23.971 6.919,24.147 7.554,24.147 L13.084,24.147 L12.865,23.729 Z" fill="white"/>
</svg>
