<svg xmlns="http://www.w3.org/2000/svg" viewBox="0 0 27.17 34.03"><defs><style>.cls-1{fill:#fff;}</style></defs><title>logo</title><g id="Слой_2" data-name="Слой 2"><g id="Layer_1" data-name="Layer 1"><path class="cls-1" d="M18.39,14.31C9.85,12.78,7.7,12.55,7.6,9.17V6.43h3.65A11.13,11.13,0,0,1,16,7.16a1.69,1.69,0,0,1,.36.23h0a2,2,0,0,1,.3.28,3.64,3.64,0,0,1,.74,2.47,5.44,5.44,0,0,1-.07,1.09.29.29,0,0,0,.24.36,21.71,21.71,0,0,1,6.22,1.75.31.31,0,0,0,.39-.09A7,7,0,0,0,25.27,9,8.78,8.78,0,0,0,23,3.07a4.45,4.45,0,0,0-.49-.48h0l-.36-.3h0L21.74,2l0,0-.38-.23-.1-.05c-.12-.07-.24-.14-.37-.2l-.16-.08-.34-.16-.27-.11L19.79,1a5.71,5.71,0,0,0-.58-.21L18.57.64l-.4-.1L17.92.47,17.37.36l-.14,0L16.56.22h0A23.56,23.56,0,0,0,13.38,0H.62A.62.62,0,0,0,0,.62v9.85H0c.47,7.25,9.61,9,12.3,9.47A29.46,29.46,0,0,1,17.6,21a3,3,0,0,1,1.72,2.88A3.08,3.08,0,0,1,17.7,26.8a11.43,11.43,0,0,1-4.89.81H7.6V22.12a.31.31,0,0,0-.25-.29A11.79,11.79,0,0,1,.55,18a.31.31,0,0,0-.55.19V34H14.9q7,0,9.83-3.16a9.13,9.13,0,0,0,2.44-6.28C27.18,21.07,26.47,15.75,18.39,14.31Z"/></g></g></svg>