<?xml version="1.0" encoding="utf-8"?>
<!-- Generator: Adobe Illustrator 15.0.0, SVG Export Plug-In . SVG Version: 6.00 Build 0)  -->
<!DOCTYPE svg PUBLIC "-//W3C//DTD SVG 1.1//EN" "http://www.w3.org/Graphics/SVG/1.1/DTD/svg11.dtd">
<svg version="1.1" id="Layer_1" xmlns="http://www.w3.org/2000/svg" xmlns:xlink="http://www.w3.org/1999/xlink" x="0px" y="0px"
	 viewBox="10 1.908 111 26" enable-background="new 10 1.908 111 21.184" xml:space="preserve"
	>
<g>
	<path fill="#F6F6F6" d="M23.638,9.401c-0.637-0.72-1.415-1.287-2.332-1.696c-0.919-0.411-1.966-0.616-3.138-0.616
		c-1.16,0-2.201,0.205-3.128,0.616c-0.926,0.409-1.707,0.976-2.343,1.696c-0.638,0.721-1.125,1.566-1.463,2.535
		c-0.338,0.967-0.508,2.016-0.508,3.148c0,1.101,0.17,2.132,0.508,3.086c0.34,0.954,0.827,1.785,1.464,2.491
		c0.635,0.706,1.416,1.262,2.342,1.663c0.927,0.402,1.968,0.605,3.128,0.605c1.172,0,2.219-0.203,3.138-0.605
		c0.918-0.401,1.695-0.958,2.332-1.663c0.636-0.706,1.124-1.537,1.462-2.491c0.339-0.954,0.508-1.985,0.508-3.086
		c0-1.132-0.169-2.181-0.508-3.148C24.762,10.967,24.274,10.123,23.638,9.401z M22.058,16.938c-0.15,0.602-0.385,1.145-0.711,1.623
		c-0.326,0.481-0.749,0.865-1.272,1.157c-0.523,0.29-1.159,0.436-1.908,0.436c-0.75,0-1.387-0.146-1.908-0.436
		c-0.524-0.292-0.948-0.676-1.273-1.157c-0.325-0.479-0.562-1.021-0.71-1.623c-0.148-0.6-0.224-1.219-0.224-1.854
		c0-0.664,0.075-1.309,0.224-1.93c0.147-0.622,0.384-1.176,0.71-1.665c0.326-0.487,0.75-0.876,1.273-1.166
		c0.521-0.29,1.158-0.433,1.908-0.433c0.75,0,1.386,0.144,1.908,0.433c0.523,0.29,0.946,0.679,1.272,1.166
		c0.325,0.489,0.562,1.043,0.711,1.665c0.147,0.621,0.222,1.266,0.222,1.93C22.28,15.72,22.206,16.339,22.058,16.938z"/>
	<polygon fill="#F6F6F6" points="40.141,7.451 35.985,7.451 30.069,13.727 30.069,7.451 26.74,7.451 26.74,22.591 30.069,22.591
		30.069,17.713 31.979,15.784 36.536,22.591 40.712,22.591 34.225,13.431 	"/>
	<polygon fill="#F6F6F6" points="52.812,7.451 40.409,7.451 40.409,10.25 44.947,10.25 44.947,22.591 48.276,22.591 48.276,10.25
		52.812,10.25 	"/>
	<path fill="#F6F6F6" d="M56.317,7.451l-5.727,15.14h3.35l1.188-3.373h5.661l1.146,3.373h3.455l-5.659-15.14H56.317z M55.998,16.738
		l1.972-5.556h0.042l1.908,5.556H55.998z"/>
	<polygon fill="#F6F6F6" points="69.677,16.08 77.013,16.08 77.013,13.492 69.677,13.492 69.677,10.25 77.67,10.25 77.67,7.451
		66.348,7.451 66.348,22.591 77.841,22.591 77.841,19.789 69.677,19.789 	"/>
	<path fill="#F6F6F6" d="M90.876,9.316c-0.615-0.623-1.342-1.087-2.184-1.397c-0.841-0.312-1.75-0.468-2.724-0.468h-6.532v15.141
		h6.532c1.157,0,2.164-0.195,3.02-0.584s1.569-0.923,2.144-1.602c0.571-0.678,0.999-1.483,1.279-2.418
		c0.285-0.933,0.425-1.95,0.425-3.052c0-1.259-0.172-2.354-0.518-3.286C91.971,10.716,91.491,9.938,90.876,9.316z M89.189,17.374
		c-0.212,0.58-0.494,1.049-0.848,1.409c-0.354,0.361-0.758,0.619-1.209,0.775c-0.454,0.153-0.918,0.23-1.398,0.23h-2.971v-9.54
		h2.377c0.82,0,1.508,0.118,2.067,0.35c0.559,0.233,1.006,0.569,1.345,1.005c0.341,0.438,0.585,0.965,0.731,1.58
		c0.149,0.614,0.225,1.305,0.225,2.067C89.509,16.088,89.403,16.794,89.189,17.374z"/>
	<polygon fill="#F6F6F6" points="97.475,16.08 104.814,16.08 104.814,13.492 97.475,13.492 97.475,10.25 105.471,10.25
		105.471,7.451 94.147,7.451 94.147,22.591 105.641,22.591 105.641,19.789 97.475,19.789 	"/>
	<path fill="#F6F6F6" d="M119.926,21.815c-0.077-0.305-0.134-0.626-0.168-0.964c-0.036-0.339-0.062-0.673-0.075-0.995
		c-0.014-0.326-0.028-0.609-0.042-0.848c-0.029-0.384-0.082-0.766-0.158-1.146c-0.079-0.384-0.201-0.732-0.372-1.051
		c-0.17-0.318-0.388-0.595-0.657-0.827c-0.266-0.232-0.609-0.407-1.019-0.518v-0.044c0.849-0.339,1.462-0.833,1.835-1.484
		c0.375-0.651,0.562-1.422,0.562-2.312c0-0.579-0.104-1.119-0.307-1.622c-0.204-0.503-0.501-0.944-0.891-1.324
		c-0.389-0.382-0.855-0.683-1.4-0.901c-0.544-0.219-1.155-0.329-1.833-0.329h-8.164v15.14h3.327v-5.918h3.333
		c0.832,0,1.433,0.187,1.802,0.553c0.367,0.368,0.606,0.948,0.721,1.736c0.083,0.609,0.146,1.246,0.191,1.911
		c0.041,0.663,0.152,1.235,0.339,1.717h3.326C120.122,22.378,120.006,22.118,119.926,21.815z M115.93,13.789
		c-0.382,0.341-0.952,0.511-1.716,0.511h-3.65v-4.263h3.65c0.764,0,1.334,0.167,1.716,0.499c0.384,0.332,0.572,0.865,0.572,1.601
		C116.502,12.901,116.313,13.452,115.93,13.789z"/>
	<polygon fill="#F6F6F6" points="58.007,4.18 59.13,5.304 60.958,5.304 58.007,2.351 55.053,5.304 56.884,5.304 	"/>
</g>
</svg>
