<?xml version="1.0" encoding="utf-8"?>
<!-- Generator: Adobe Illustrator 23.0.1, SVG Export Plug-In . SVG Version: 6.00 Build 0)  -->
<svg version="1.1" id="serenity-logo" xmlns="http://www.w3.org/2000/svg" xmlns:xlink="http://www.w3.org/1999/xlink" x="0px"
	 y="0px" viewBox="0 0 243.8 66.8" style="enable-background:new 0 0 243.8 66.8;" xml:space="preserve">
<style type="text/css">
	.st0{fill:#FFFFFF;}
</style>
<g>
	<g>
		<path class="st0" d="M19,16c1.8,0,3.6,0.2,5.2,0.6s3.3,1.1,5.1,2v7c-1.7-1.1-3.5-1.9-5.4-2.6s-3.6-1-5.1-1c-1.3,0-2.3,0.2-3,0.7
			c-0.7,0.5-1.1,1.2-1.1,2c0,0.5,0.3,1,0.9,1.5c0.6,0.5,2.2,1.4,4.9,2.8c3.8,1.9,6.5,3.7,8,5.3s2.3,3.6,2.3,5.9
			c0,3.2-1.1,5.7-3.4,7.6c-2.2,1.8-5.3,2.8-9.1,2.8c-2.4,0-4.6-0.3-6.7-0.8s-3.8-1.2-5.1-1.9v-7.3c4.3,2.4,7.9,3.6,10.8,3.6
			c1.5,0,2.7-0.3,3.6-0.8c0.9-0.5,1.4-1.2,1.4-2.1c0-0.5-0.2-1-0.5-1.4S21,39,20.3,38.6c-0.7-0.5-2.8-1.5-6.3-3.3
			c-2.7-1.3-4.7-2.7-6-4.2s-1.9-3.3-1.9-5.4c0-3,1.2-5.3,3.5-7.1C12.2,16.8,15.3,16,19,16"/>
		<path class="st0" d="M51.6,16c4.9,0,8.8,1.6,11.7,4.7s4.3,7.5,4.3,13V35H43.9c0.4,3,1.5,5.3,3.3,6.9c1.9,1.6,4.4,2.4,7.7,2.4
			c2.1,0,4.1-0.4,6.1-1.1s4-1.8,6-3.3v6.5c-3.9,2.8-8.7,4.1-14.2,4.1c-5.3,0-9.6-1.6-12.9-4.8c-3.3-3.2-5-7.4-5-12.7
			c0-5.1,1.5-9.2,4.6-12.4S46.6,16,51.6,16 M59.2,29.7c-0.2-2.4-1-4.3-2.2-5.7c-1.2-1.4-2.9-2.1-5.1-2.1c-2.2,0-4,0.7-5.3,2
			s-2.2,3.2-2.6,5.8C44,29.7,59.2,29.7,59.2,29.7z"/>
		<path class="st0" d="M97.1,17.7c-0.6-0.4-1.1-0.7-1.6-0.9C94.4,16.3,93.2,16,92,16c-1.9,0-3.7,0.7-5.3,2.2c-1.6,1.4-3.2,3.8-4.8,7
			h-0.1v-8.5H73v33.4h8.8V34.8c0-1.7,0.4-3.3,1.2-5c0.8-1.7,1.9-3,3.2-4c1.3-1,2.7-1.5,4-1.5c1.1,0,2.5,0.5,4.1,1.5L97.1,17.7z"/>
		<path class="st0" d="M154.1,16c3.6,0,6.4,1.2,8.6,3.5c2.1,2.3,3.1,5.4,3.1,9.3V50H157V29.7c0-2.2-0.5-3.9-1.6-5.1
			c-1-1.3-2.4-1.9-4.2-1.9c-1.4,0-2.6,0.4-3.8,1.2c-1.2,0.8-2.5,2.1-3.9,4v22.2h-8.8V16.6h8.8v4.7c1.6-1.9,3.3-3.3,5-4.1
			C150.2,16.4,152.1,16,154.1,16"/>
		<path class="st0" d="M197.9,7.7h0.7v8.9h16.6v6.7h-16.6v15.4c0,1.5,0.5,2.7,1.4,3.6c0.9,0.9,2.1,1.4,3.7,1.4c2,0,4.4-0.7,7.1-2.2
			v7c-3.2,1.4-6.1,2.1-8.9,2.1c-3.8,0-6.7-1-8.8-3.1s-3.2-4.8-3.2-8.3v-16h-5.2v-1.4L197.9,7.7z"/>
		<polygon class="st0" points="218.5,16.6 226.4,34.6 234.4,16.6 243.8,16.6 220.7,66.8 211.3,66.8 221.9,43.9 208.9,16.6 		"/>
		<path class="st0" d="M114.4,16c4.9,0,8.8,1.6,11.7,4.7c2.9,3.1,4.3,7.5,4.3,13V35h-23.6c0.4,3,1.5,5.3,3.3,6.9
			c1.9,1.6,4.4,2.4,7.7,2.4c2.1,0,4.1-0.4,6.1-1.1c1.9-0.7,4-1.8,6-3.3v6.5c-3.9,2.8-8.7,4.1-14.2,4.1c-5.3,0-9.6-1.6-12.9-4.8
			s-5-7.4-5-12.7c0-5.1,1.5-9.2,4.6-12.4S109.4,16,114.4,16 M122,29.7c-0.2-2.4-1-4.3-2.2-5.7c-1.2-1.4-2.9-2.1-5.1-2.1
			s-4,0.7-5.3,2s-2.2,3.2-2.6,5.8C106.8,29.7,122,29.7,122,29.7z"/>
		<path class="st0" d="M176,1.2c1.4,0,2.5,0.5,3.5,1.5s1.5,2.1,1.5,3.5c0,1.3-0.5,2.5-1.4,3.5c-1,1-2.1,1.5-3.5,1.5
			c-1.3,0-2.5-0.5-3.5-1.5s-1.5-2.2-1.5-3.5c0-1.4,0.5-2.6,1.5-3.5C173.5,1.6,174.7,1.2,176,1.2 M180.4,50h-8.8V16.6h8.8V50z"/>
	</g>
</g>
<g id="Слой_3">
</g>
</svg>
