<?xml version="1.0" encoding="utf-8"?>
<!-- Generator: Adobe Illustrator 23.0.1, SVG Export Plug-In . SVG Version: 6.00 Build 0)  -->
<svg version="1.1" id="Layer_1" xmlns="http://www.w3.org/2000/svg" xmlns:xlink="http://www.w3.org/1999/xlink" x="0px" y="0px"
	 viewBox="0 0 255 224" width="255" height="224" style="enable-background:new 0 0 255 224;" xml:space="preserve">
<style type="text/css">
	.st0{fill:#8080F2;}
	.st1{fill:#4B32C3;}
</style>
<g>
	<path class="st0" d="M77.1,81.5l48.4-28c1.2-0.7,2.7-0.7,3.9,0l48.4,28c1.2,0.7,2,2,2,3.4v55.9c0,1.4-0.7,2.7-2,3.4l-48.4,28
		c-1.2,0.7-2.7,0.7-3.9,0l-48.4-28c-1.2-0.7-2-2-2-3.4V84.9C75.2,83.5,75.9,82.2,77.1,81.5"/>
	<path class="st1" d="M253.4,107L195.6,6.3c-2.1-3.6-6-6.3-10.2-6.3H69.6c-4.2,0-8.1,2.7-10.2,6.3L1.6,106.8
		c-2.1,3.6-2.1,8.2,0,11.9l57.9,99.8c2.1,3.6,6,5.5,10.2,5.5h115.7c4.2,0,8.1-1.8,10.2-5.4l57.9-100
		C255.5,114.9,255.5,110.6,253.4,107 M205.5,155.4c0,1.5-0.9,2.8-2.2,3.6l-73.7,42.5c-1.3,0.7-2.9,0.7-4.2,0L51.7,159
		c-1.3-0.7-2.2-2.1-2.2-3.6V70.4c0-1.5,0.9-2.8,2.2-3.6l73.7-42.5c1.3-0.7,2.9-0.7,4.2,0l73.8,42.5c1.3,0.7,2.2,2.1,2.2,3.6V155.4z"
		/>
</g>
</svg>
