<svg xmlns="http://www.w3.org/2000/svg" viewBox="0 0 337.58 310.99" width="338" height="311"><defs><style>.cls-1{fill:#fc6d26;}.cls-2{fill:#e24329;}.cls-3{fill:#fca326;}</style></defs><title>gitlab</title><g id="Слой_2" data-name="Слой 2"><g id="logo_art" data-name="logo art"><g id="g44"><path id="path46" class="cls-1" d="M337,177.82,318.05,119.7,280.63,4.42a6.47,6.47,0,0,0-12.27,0L230.94,119.63H106.61L69.19,4.42a6.46,6.46,0,0,0-12.26,0L19.57,119.63.66,177.82a12.89,12.89,0,0,0,4.66,14.39L168.79,311,332.23,192.21A12.89,12.89,0,0,0,337,177.82"/></g><g id="g48"><path id="path50" class="cls-2" d="M168.79,310.9h0L231,119.62H106.66Z"/></g><g id="g56"><path id="path58" class="cls-1" d="M168.79,310.9,106.61,119.62h-87Z"/></g><g id="g64"><path id="path66" class="cls-3" d="M19.54,119.68h0L.63,177.8a12.89,12.89,0,0,0,4.66,14.39L168.79,311Z"/></g><g id="g72"><path id="path74" class="cls-2" d="M19.57,119.68h87.11L69.19,4.48a6.47,6.47,0,0,0-12.27,0Z"/></g><g id="g76"><path id="path78" class="cls-1" d="M168.79,310.9,231,119.62h87.14Z"/></g><g id="g80"><path id="path82" class="cls-3" d="M318,119.68h0l18.91,58.12a12.84,12.84,0,0,1-4.66,14.39L168.79,310.9,318,119.68Z"/></g><g id="g84"><path id="path86" class="cls-2" d="M318.07,119.68H231L268.39,4.48a6.46,6.46,0,0,1,12.26,0l37.42,115.2Z"/></g></g></g></svg>
