<svg xmlns="http://www.w3.org/2000/svg" viewBox="0 0 22.06 24.95" width="220" height="250"><defs><style>.cls-1{fill:#0ebac5;fill-rule:evenodd;}</style></defs><title>lambdatest</title><g id="Слой_2" data-name="Слой 2"><g id="Слой_1-2" data-name="Слой 1"><path class="cls-1" d="M11.61.18l4.68,2.7h0l.25.15,0,0h0L21.3,5.77l.26.15a1,1,0,0,1,.5.88h0v6.76L20,12.4v-5L15.58,4.8h0l0,0-.26-.14h0L11,2.17,6.59,4.73l0,0h0l0,0-.25.15h0L2,7.37V17.79l4.46,2.57h0l.26.15h0l1.88,1.09.15.09V24l-.44-.26-2.6-1.49h0l-.25-.15,0,0h0L.76,19.38h0l-.25-.15A1,1,0,0,1,0,18.36H0V6.79a1,1,0,0,1,.16-.53h0a1,1,0,0,1,.42-.37L5.26,3.18h0L5.52,3l0,0h0l.2-.12h0L10.27.29h0l.26-.15A1,1,0,0,1,11.61.18ZM8.67,9.82,20,16.38v-2l2,1.16v2.26l-1,1c-.14.18-.35.32-.53.21h0l-8.45-4.89v9.34a.31.31,0,0,1-.1.26l-.19-.23.18.23-1.41,1.15a.3.3,0,0,1-.5-.22h0V13l-1.89-1.1-1,.58,0,0h0l-.6.34a.29.29,0,0,1-.41-.08v0l.26-.15-.26.15-.35-.61h0l-.35-.6a.3.3,0,0,1,.08-.41h0l.15.25-.15-.25.62-.36,1.54-.88L8,9.63a.31.31,0,0,1,.32,0h0Z"/></g></g></svg>
