<?xml version="1.0" encoding="utf-8"?>
<!-- Generator: Adobe Illustrator 23.0.1, SVG Export Plug-In . SVG Version: 6.00 Build 0)  -->
<svg version="1.1" id="Layer_1" xmlns="http://www.w3.org/2000/svg" xmlns:xlink="http://www.w3.org/1999/xlink" x="0px" y="0px"
	 viewBox="0 0 128 78.8" width="128" height="79" style="enable-background:new 0 0 128 78.8;" xml:space="preserve">
<style type="text/css">
	.st0{fill:#EFCCA3;}
	.st1{fill:#CCAC8D;}
	.st2{fill:#FFFFFF;}
	.st3{fill:#56332B;}
	.st4{fill:#442823;}
	.st5{fill:#7F4A41;}
	.st6{fill:#331712;}
</style>
<g>
	<path class="st0" d="M107.4,24.6c-0.2-4.4,0.4-8.3-1.6-11.6C101,4.8,89,0,65,0v0.7h-0.5H65V0C41,0,28.4,4.8,23.6,13.1
		c-1.9,3.4-1.7,7.2-2,11.6c-0.2,3.5-1.8,7.2-1.1,11.2c0.8,5.2,1.1,10.4,1.9,15.2c0.6,3.9,6,7.2,6.5,10.9c1.4,10.2,12,14.9,36,14.9
		v0.8h-0.6h0.1H65v-0.8c24,0,34.2-4.7,35.5-14.9c0.5-3.8,5.5-7,6.1-10.9c0.8-4.8,1.1-10,1.9-15.2C109.2,31.9,107.6,28.1,107.4,24.6z
		"/>
	<path class="st1" d="M64.6,28.2c4.3,0.1,7.3,2.8,10.1,5.3c3.3,2.9,8.9,4.9,11.2,7.4c2.3,2.5,5.3,5,6.4,8.9s1.4,8.9,1.4,10.2
		c0,1.3,0.7,1,2.7,0c4.7-2.3,9.9-8.5,9.9-8.5c-0.6,3.9-5.7,7.4-6.2,11.1C98.9,72.8,89,77.7,64.5,77.7h-0.1l0,0H65"/>
	<path class="st1" d="M80.4,20.4c0.9,3.1,4.1,13.6-2.1,10.1c0,0,2.6,1.5,4.2,7.2c1.7,5.7,5.8,6.4,5.8,6.4s6.7,1.3,11.7-3
		c4.2-3.6,4.9-10,3.1-14.9c-1.8-4.8-5-6.3-9.7-7.3C88.7,17.8,79.3,16.9,80.4,20.4z"/>
	<g>
		<circle cx="92.3" cy="31.8" r="8.8"/>
		<circle class="st2" cx="90" cy="27.9" r="2.3"/>
	</g>
	<path class="st0" d="M78.9,31.4c0,0,7.9,5.4,12.2,10.7c4.3,5.3,4.2,6.3,4.2,6.3l-3.1,1.4c0,0-4.4-8.3-9.8-11.4
		c-5.5-3.1-6.1-5.7-6.1-5.7L78.9,31.4z"/>
	<path class="st1" d="M64.9,28.2c-4.3,0.1-7.5,2.8-10.4,5.3c-3.3,2.9-9.1,4.9-11.4,7.4c-2.3,2.5-5.4,5-6.5,8.9s-1.5,8.9-1.5,10.2
		c0,1.3,0.2,1.4-2.7,0c-4.7-2.2-9.9-8.5-9.9-8.5c0.6,3.9,5.7,7.4,6.2,11.1C30.1,72.8,40,77.7,64.5,77.7h0.1l0,0H65"/>
	<path class="st3" d="M88.1,45.1c-4.8-5.9-12.5-11.4-23.2-11.4h-0.1l0,0c-10.7,0-18.4,5.5-23.2,11.4c-5,6.1-4.6,8.5-4.6,14.3
		c0,21,7.4,15,12.3,17.6c5,2.5,10.2,1.7,15.5,1.7l0,0h0.1c5.4,0,10.5,0.7,15.5-1.8c4.9-2.5,12.3,3.7,12.3-17.3
		C92.8,53.8,93.1,51.2,88.1,45.1z"/>
	<path class="st4" d="M64.4,38.9c0,0-0.7,9.7-2.1,11.6l2.6-0.6L64.4,38.9z"/>
	<path class="st4" d="M65.1,38.9c0,0,0.7,9.7,2.1,11.6l-2.6-0.6L65.1,38.9z"/>
	<path class="st3" d="M56.7,36.6c-1-2.3,2.6-6,8.3-6.1c5.7,0,9.3,3.7,8.3,6.1c-1,2.4-4.6,3.1-8.3,3.2C61.4,39.7,57.7,39,56.7,36.6z"
		/>
	<path d="M65,38.9c0-0.4,3.4-0.5,5.2-1.7c0,0-3.7,1.2-4.5,0.7c-0.8-0.4-1-1.6-1-1.6s-0.3,1.2-0.9,1.6c-0.7,0.4-4.9-0.7-4.9-0.7
		s5.6,1.4,5.6,1.7s-0.1,1.3-0.1,2c0,2.5,0,8.7,0.4,9.2c0.6,0.9,0.4-6.7,0.4-9.2C65.1,40.1,65.1,39.3,65,38.9z"/>
	<path class="st5" d="M65.2,52.3c1.7,0,4.7,1.2,7.4,3.1c-2.6-2.9-5.7-4.9-7.4-4.9c-1.8,0-5.6,2.2-8.3,5.4
		C59.7,53.7,63.3,52.3,65.2,52.3z"/>
	<path class="st4" d="M64.5,70c-3.8,0-7.5-1.2-10.9-2.1c-0.7-0.2-1.4,0.3-2.1,0.1c-6.3-2-11.4-5.4-14.5-9.7c0,0.3,0,0.7,0,1
		c0,21,7.4,15.1,12.3,17.6c5,2.5,10.2,1.7,15.5,1.7l0,0h0.1c5.4,0,10.5,0.7,15.5-1.8c4.9-2.5,12.3,3.6,12.3-17.4
		c0-0.8,0-1.6,0.1-2.3c-2.9,4.7-8.2,8.4-14.8,10.6c-0.6,0.2-2-0.3-2.6-0.2C71.8,68.7,68.6,70,64.5,70z"/>
	<path class="st4" d="M55,58.7c0,0-2.5,7.5-0.8,10.8l-2.3-1C51.9,68.5,53.6,60.9,55,58.7z"/>
	<path class="st4" d="M74.8,58.7c0,0,2.5,7.5,0.8,10.8l2.3-1C77.9,68.5,76.1,60.9,74.8,58.7z"/>
	<path class="st1" d="M48.6,20.4c-0.9,3.1-4.1,13.6,2.1,10.1c0,0-2.6,1.5-4.2,7.2s-5.8,6.4-5.8,6.4s-6.7,1.3-11.7-3
		c-4.2-3.6-4.9-10-3.1-14.9s5-6.3,9.7-7.3C40.3,17.8,49.6,16.9,48.6,20.4z"/>
	<path d="M64.9,50.5c2.7,0,11.1,5.8,11.2,12.9c0-0.1,0-0.2,0-0.4c0-7.4-6.8-13.3-11.2-13.3c-4.4,0-11.2,6-11.2,13.3
		c0,0.1,0,0.2,0,0.4C53.8,56.3,62.2,50.5,64.9,50.5z"/>
	<g>
		<ellipse transform="matrix(0.9683 -0.2497 0.2497 0.9683 -6.6769 17.7726)" class="st6" cx="66.7" cy="35.2" rx="0.8" ry="1.5"/>
		<ellipse transform="matrix(0.2963 -0.9551 0.9551 0.2963 10.2761 84.3609)" class="st6" cx="62.4" cy="35.2" rx="1.5" ry="0.8"/>
	</g>
	<g>
		<circle cx="37.2" cy="31.8" r="8.8"/>
		<circle class="st2" cx="39.5" cy="27.9" r="2.3"/>
	</g>
	<g>
		<path class="st5" d="M67.5,31.9c0-0.1-2.3,1-2.9,1.1c-0.6-0.1-2.9-1.2-2.9-1.1c0,0,1.9,0,2.9,0S67.5,31.9,67.5,31.9z"/>
	</g>
	<path class="st0" d="M50,31.4c0,0-7.9,5.4-12.2,10.7s-4.2,6.3-4.2,6.3l3.1,1.4c0,0,4.4-8.3,9.8-11.4s6.1-5.7,6.1-5.7L50,31.4z"/>
	<path class="st1" d="M32.7,15.4c0,0-2.7,7.4-8.7,10.5C24,25.9,33.4,24.8,32.7,15.4z"/>
	<path class="st1" d="M95.8,15.4c0,0,2.7,7.4,8.7,10.5C104.5,25.9,95.1,24.8,95.8,15.4z"/>
	<path class="st1" d="M78.7,29.2c0,0-5.9-6.2-13.8-6.4l0,0c-0.1,0,0.2,0,0.1,0s0.1,0,0.1,0l0,0c-8,0.2-13.8,6.4-13.8,6.4
		c6.9-4.8,12.8-4.7,13.8-4.7l0,0l0,0l0,0l0,0C65,24.5,71.8,24.4,78.7,29.2z"/>
	<path class="st1" d="M71.8,16.2c0,0-3-4.2-7-4.3l0,0h0.1H65l0,0c-3,0.1-6.9,4.3-6.9,4.3C61.5,12.9,65,13,65,13l0,0l0,0l0,0l0,0
		C65,13,68.3,12.9,71.8,16.2z"/>
	<path class="st1" d="M37.2,46.9c0,0-4.7,2.3-8.1,0.9l0,0H29l0,0l0,0c-3-1.7-4.5-6.8-4.5-6.8S27.5,50,37.2,46.9z"/>
	<path class="st1" d="M92,46.9c0,0,4.7,2.3,8.1,0.9l0,0l0,0l0,0l0,0c4-1.7,4.6-6.8,4.6-6.8S101.7,50,92,46.9z"/>
	<g>
		<path class="st1" d="M42.6,14.9c2.6-0.5,6.9-0.6,10.3,0.5c4.3,1.5,0.8,7,1.7,7.3s2.1-3.8,10.1-3.4c8.1,0.4,9,4,10.1,3.4
			s-1.1-10,11-7.8c0,0-12.7-3.4-12.1,5.8c0,0-7.3-5.6-17.5-0.6C56.3,20.1,58.9,11.5,42.6,14.9z"/>
	</g>
	<path class="st1" d="M86.9,14.9c0.2,0,0.3,0.1,0.4,0.1S87.2,14.9,86.9,14.9z"/>
	<path class="st1" d="M86.9,14.9L86.9,14.9L86.9,14.9z"/>
	<path class="st1" d="M39.1,2.6c0,0-10.8,13.6-12.4,18.8c-1.6,5.3-2.8,27-4.2,30.1l-5-21.4l9.2-22.3L39.1,2.6z"/>
	<path class="st1" d="M89.9,2.6c0,0,10.8,13.6,12.4,18.8c1.6,5.3,2.8,27,4.2,30.1l5-21.4l-9.2-22.3L89.9,2.6z"/>
	<path class="st3" d="M89.4,2.6c0,0,11.6,9.7,15,20.9s2,24.8,4.6,26.5c3.7,2.4,7.9-11.9,9.3-13.4c2.2-2.4,9.5-8.5,10-9.6
		S113.5,9.2,106.8,5.9C98.7,2.1,88.7,1.8,89.4,2.6z"/>
	<path class="st4" d="M99.3,8.6c0,0,13.7,17.5,13.5,39.3l5.5-11.2C118.2,36.7,113.4,22.4,99.3,8.6z"/>
	<path class="st3" d="M39.1,2.6c0,0-11.6,9.7-15,20.9s-2,24.8-4.6,26.5c-3.7,2.4-7.9-11.9-9.3-13.4C8,34.2,0.7,28.1,0.2,27
		S15,9.2,21.7,5.9C29.8,2.1,39.8,1.8,39.1,2.6z"/>
	<path class="st4" d="M29.2,8.6c0,0-13.7,17.5-13.5,39.3l-5.4-11.2C10.3,36.7,15.1,22.4,29.2,8.6z"/>
	<path class="st1" d="M21.8,48.3c0,0,1,5.4,2.6,7.1s0.5-1.3,0.5-1.3s-1.7-0.9-1.4-7.8S21.8,48.3,21.8,48.3z"/>
	<path class="st1" d="M107.1,48.3c0,0-1,5.4-2.6,7.1s-0.5-1.3-0.5-1.3s1.7-0.9,1.4-7.8S107.1,48.3,107.1,48.3z"/>
	<g>
		<circle class="st4" cx="54.5" cy="44.2" r="0.8"/>
		<circle class="st4" cx="49.9" cy="49" r="0.8"/>
		<circle class="st4" cx="48.4" cy="44.2" r="0.8"/>
	</g>
	<g>
		<circle class="st4" cx="74" cy="44.2" r="0.8"/>
		<circle class="st4" cx="78.6" cy="49" r="0.8"/>
		<circle class="st4" cx="80.1" cy="44.2" r="0.8"/>
	</g>
</g>
</svg>
